<svg width="166" height="200" viewBox="0 0 166 200" fill="none" xmlns="http://www.w3.org/2000/svg">
<style>
    .icon--bw {
        fill: #000;
    }
    .dark .icon--bw {
        fill: #fff;
    }
</style>
<path class="icon--bw" d="M23.01 200C10.5882 199.998 0.518235 189.929 0.514985 177.506L0.501954 37.4934C0.498707 25.0693 10.5692 14.9952 22.9933 14.9952L30.4651 14.9866L30.4707 7.49828C30.4707 3.70219 33.2916 0.564961 36.9515 0.068451L37.969 0C41.7651 0 44.9023 2.82089 45.3988 6.48081L45.4673 7.49828L45.4616 14.9866H75.4748L75.4798 7.49828C75.4798 3.70219 78.3007 0.564961 81.9606 0.068451L82.9781 0C86.7742 0 89.9114 2.82089 90.4079 6.48081L90.4763 7.49828L90.4713 14.9866H120.444L120.45 7.49828C120.45 3.70219 123.271 0.564961 126.931 0.068451L127.948 0C131.744 0 134.882 2.82089 135.378 6.48081L135.447 7.49828L135.441 14.9866L142.931 14.9952C155.352 14.9994 165.421 25.0676 165.426 37.4904L165.44 147.465C165.44 148.06 165.369 148.648 165.232 149.217L164.941 150.154L164.492 151.115L164.288 151.436C164.002 151.917 163.649 152.363 163.244 152.768L118.207 197.804C117.944 198.067 117.662 198.31 117.362 198.532L118.207 197.804C117.884 198.127 117.534 198.418 117.162 198.674L116.285 199.195L115.118 199.666L113.986 199.922L113.45 199.98L112.905 200H23.01ZM142.929 29.9924H22.8924C18.7985 30.0476 15.4985 33.3833 15.4985 37.4907L15.5115 177.503C15.5126 181.645 18.8706 185.003 23.0112 185.003L105.398 184.998L105.407 162.463C105.407 150.557 114.656 140.811 126.361 140.02L127.901 139.968H150.438L150.429 37.4941C150.428 33.3519 147.07 29.9941 142.929 29.9924ZM139.83 154.964H127.901C124.105 154.964 120.968 157.785 120.472 161.445L120.403 162.463L120.394 174.4L139.83 154.964ZM37.9708 139.968H77.944C82.0852 139.968 85.4423 143.325 85.4423 147.466C85.4423 151.262 82.6214 154.399 78.9615 154.896L77.944 154.964H37.9708C33.8296 154.964 30.4725 151.607 30.4725 147.466C30.4725 143.67 33.2934 140.533 36.9533 140.036L37.9708 139.968H77.944H37.9708ZM37.9708 99.9771H127.933C132.074 99.9771 135.431 103.334 135.431 107.475C135.431 111.271 132.61 114.409 128.95 114.905L127.933 114.974H37.9708C33.8296 114.974 30.4725 111.617 30.4725 107.475C30.4725 103.679 33.2934 100.542 36.9533 100.046L37.9708 99.9771H127.933H37.9708ZM37.9708 59.9862H127.933C132.074 59.9862 135.431 63.3433 135.431 67.4845C135.431 71.2806 132.61 74.4178 128.95 74.9143L127.933 74.9828H37.9708C33.8296 74.9828 30.4725 71.6257 30.4725 67.4845C30.4725 63.6884 33.2934 60.5512 36.9533 60.0547L37.9708 59.9862H127.933H37.9708Z"/>
</svg>
